# xmcd CD database file
#
# Track frame offsets:
#	150
#	19607
#	35092
#	55307
#	73200
#	92892
#	111325
#	127372
#	147712
#	165735
#
# Disc length: 2445 seconds
#
# Revision: 0
# Processed by: cddbd v1.5PL3 Copyright (c) Steve Scherf et al.
# Submitted via: CDex 1.51
#
DISCID=a0098b0a
DTITLE=釈由美子 - Shaku Mix
DYEAR=2001
DGENRE=Pop
TTITLE0=セカンドチャンス
TTITLE1=わかんない
TTITLE2=風のゴンドラ
TTITLE3=BUNSINラブソング
TTITLE4=MIRAI
TTITLE5=セカンドチャンス(Another Groove Mix)
TTITLE6=わかんない(Room 503 French Mix)
TTITLE7=風のゴンドラ(Breezy Mix)
TTITLE8=BUNSINラブソング(80's Beat Rock Mix)
TTITLE9=MIRAI(Cheerful Clap Mix)
EXTD=YEAR: 2001
EXTT0=
EXTT1=
EXTT2=
EXTT3=
EXTT4=
EXTT5=
EXTT6=
EXTT7=
EXTT8=
EXTT9=
PLAYORDER=
